<svg version="1.1" id="Layer_1" xmlns="http://www.w3.org/2000/svg" xmlns:xlink="http://www.w3.org/1999/xlink" x="0px" y="0px"
	 width="100%" viewBox="0 0 1536 1024" enable-background="new 0 0 1536 1024" xml:space="preserve">
<path fill="#000001" opacity="1.000000" stroke="none" 
	d="
M820.000000,1025.000000 
	C546.666687,1025.000000 273.833344,1025.000000 1.000000,1025.000000 
	C1.000000,683.666687 1.000000,342.333344 1.000000,1.000000 
	C513.000000,1.000000 1025.000000,1.000000 1537.000000,1.000000 
	C1537.000000,342.333344 1537.000000,683.666687 1537.000000,1025.000000 
	C1298.166626,1025.000000 1059.333374,1025.000000 820.000000,1025.000000 
M479.741272,328.886719 
	C479.718414,406.104187 479.686035,483.321655 479.690979,560.539124 
	C479.691376,566.680176 479.949951,572.821167 480.093414,579.846069 
	C481.692627,604.391663 491.089081,625.770020 508.039215,643.284363 
	C526.475647,662.334534 549.148254,672.895264 576.141052,672.897827 
	C609.804443,672.901001 643.467896,672.912415 677.131287,672.920166 
	C679.436401,672.920715 681.741516,672.920227 684.836060,672.920227 
	C666.924072,714.720398 649.300354,755.848022 631.676575,796.975586 
	C632.025330,797.200684 632.374023,797.425842 632.722778,797.650940 
	C690.894531,762.004089 749.066284,726.357239 807.238037,690.710388 
	C807.175842,690.238892 807.113586,689.767395 807.051331,689.295837 
	C789.837036,684.128601 772.622742,678.961365 755.408386,673.794128 
	C758.387878,672.901245 761.200745,672.901917 764.013550,672.901184 
	C826.840637,672.885010 889.667664,672.869385 952.494751,672.848389 
	C954.327271,672.847778 956.176575,672.938416 957.989868,672.734985 
	C984.504089,669.761169 1006.362976,658.115356 1023.363037,637.489807 
	C1038.506714,619.116699 1046.722290,597.837280 1046.862549,574.215027 
	C1047.300903,500.391754 1047.052246,426.564423 1047.062500,352.738647 
	C1047.063599,344.074280 1047.861572,335.308258 1046.832153,326.765045 
	C1044.024414,303.462128 1035.746216,282.328278 1019.294128,265.025452 
	C1001.075195,245.864365 979.043518,234.264038 952.285095,234.214966 
	C825.797729,233.983017 699.309631,234.089828 572.821838,234.078293 
	C571.489075,234.078171 570.144592,234.002045 568.825256,234.143997 
	C542.456177,236.980957 520.575562,248.581421 503.621643,268.822021 
	C489.369049,285.837616 481.298523,305.631439 479.741272,328.886719 
z"/>
<path fill="#20B94E" opacity="1.000000" stroke="none" 
	d="
M479.942688,327.962128 
	C481.298523,305.631439 489.369049,285.837616 503.621643,268.822021 
	C520.575562,248.581421 542.456177,236.980957 568.825256,234.143997 
	C570.144592,234.002045 571.489075,234.078171 572.821838,234.078293 
	C699.309631,234.089828 825.797729,233.983017 952.285095,234.214966 
	C979.043518,234.264038 1001.075195,245.864365 1019.294128,265.025452 
	C1035.746216,282.328278 1044.024414,303.462128 1046.832153,326.765045 
	C1047.861572,335.308258 1047.063599,344.074280 1047.062500,352.738647 
	C1047.052246,426.564423 1047.300903,500.391754 1046.862549,574.215027 
	C1046.722290,597.837280 1038.506714,619.116699 1023.363037,637.489807 
	C1006.362976,658.115356 984.504089,669.761169 957.989868,672.734985 
	C956.176575,672.938416 954.327271,672.847778 952.494751,672.848389 
	C889.667664,672.869385 826.840637,672.885010 764.013550,672.901184 
	C761.200745,672.901917 758.387878,672.901245 755.408386,673.794128 
	C772.622742,678.961365 789.837036,684.128601 807.051331,689.295837 
	C807.113586,689.767395 807.175842,690.238892 807.238037,690.710388 
	C749.066284,726.357239 690.894531,762.004089 632.722778,797.650940 
	C632.374023,797.425842 632.025330,797.200684 631.676575,796.975586 
	C649.300354,755.848022 666.924072,714.720398 684.836060,672.920227 
	C681.741516,672.920227 679.436401,672.920715 677.131287,672.920166 
	C643.467896,672.912415 609.804443,672.901001 576.141052,672.897827 
	C549.148254,672.895264 526.475647,662.334534 508.039215,643.284363 
	C491.089081,625.770020 481.692627,604.391663 480.302429,579.052856 
	C480.679443,576.617004 480.993805,574.974548 480.994293,573.331909 
	C481.017334,493.461182 481.020844,413.590485 480.967651,333.719788 
	C480.966370,331.800323 480.299225,329.881348 479.942688,327.962128 
M840.862793,468.374969 
	C852.043030,455.049652 863.223267,441.724365 875.287720,427.345215 
	C842.091064,427.345215 810.089844,427.345215 777.630127,427.345215 
	C777.630127,389.863312 777.630127,353.168030 777.630127,316.472748 
	C777.331909,316.379120 777.033752,316.285492 776.735535,316.191864 
	C741.815125,367.975250 706.894714,419.758636 671.272156,472.583130 
	C697.962463,472.583130 723.477905,472.583130 749.675110,472.583130 
	C736.356323,523.041687 723.258484,572.663208 710.160645,622.284790 
	C732.325623,597.108643 753.799622,571.501526 775.331848,545.943420 
	C796.988037,520.238159 818.702209,494.581696 840.862793,468.374969 
z"/>
<path fill="#28D562" opacity="1.000000" stroke="none" 
	d="
M479.841980,328.424438 
	C480.299225,329.881348 480.966370,331.800323 480.967651,333.719788 
	C481.020844,413.590485 481.017334,493.461182 480.994293,573.331909 
	C480.993805,574.974548 480.679443,576.617004 480.299988,578.610901 
	C479.949951,572.821167 479.691376,566.680176 479.690979,560.539124 
	C479.686035,483.321655 479.718414,406.104187 479.841980,328.424438 
z"/>
<path fill="#FCFDFC" opacity="1.000000" stroke="none" 
	d="
M840.626831,468.639404 
	C818.702209,494.581696 796.988037,520.238159 775.331848,545.943420 
	C753.799622,571.501526 732.325623,597.108643 710.160645,622.284790 
	C723.258484,572.663208 736.356323,523.041687 749.675110,472.583130 
	C723.477905,472.583130 697.962463,472.583130 671.272156,472.583130 
	C706.894714,419.758636 741.815125,367.975250 776.735535,316.191864 
	C777.033752,316.285492 777.331909,316.379120 777.630127,316.472748 
	C777.630127,353.168030 777.630127,389.863312 777.630127,427.345215 
	C810.089844,427.345215 842.091064,427.345215 875.287720,427.345215 
	C863.223267,441.724365 852.043030,455.049652 840.626831,468.639404 
z"/>
</svg>